<?xml version="1.0" encoding="utf-8"?>
<!-- Generator: Adobe Illustrator 21.0.0, SVG Export Plug-In . SVG Version: 6.00 Build 0)  -->
<svg version="1.1" id="Layer_2" xmlns="http://www.w3.org/2000/svg" xmlns:xlink="http://www.w3.org/1999/xlink" x="0px" y="0px"
	 viewBox="0 0 256 256" style="enable-background:new 0 0 256 256;" xml:space="preserve">
<style type="text/css">
	.st0{fill:#FFFFFF;}
</style>
<path class="st0" d="M181.3,232.7H74.7c-2.6,0-4.7-2.1-4.7-4.7v-16.3c0-2.6,2.1-4.7,4.7-4.7h106.7c2.6,0,4.7,2.1,4.7,4.7V228
	C186,230.6,183.9,232.7,181.3,232.7z M180.3,27h-24.7v-2.5c0-7.4-6.1-13.5-13.5-13.5h-28.3c-7.4,0-13.5,6.1-13.5,13.5V27H75.7
	c-9.9,0-18,8.1-18,18v182.3c0,9.9,8.1,18,18,18h104.7c9.9,0,18-8.1,18-18V45C198.3,35.1,190.2,27,180.3,27z M164.1,117h-28.8
	L155,72.7c0.1-0.3,0.2-0.6,0.2-1c0-1.6-1.3-2.9-2.9-2.9c-0.6,0-1.3,0.2-1.7,0.6l-60,59.9c-0.2,0.2-0.4,0.4-0.6,0.7c0,0,0,0,0,0
	c-0.1,0.1-0.1,0.2-0.2,0.3c-0.1,0.1-0.1,0.2-0.1,0.3c0,0,0,0,0,0c0,0.1-0.1,0.2-0.1,0.3c0,0.1,0,0.3,0,0.5c0,1.6,1.3,2.9,2.9,2.9
	h28.8l-19.7,44.3c-0.1,0.3-0.2,0.6-0.2,1c0,1.6,1.3,2.9,2.8,2.9c0.7,0,1.3-0.2,1.7-0.6l60-59.9c0.2-0.2,0.4-0.4,0.6-0.7c0,0,0,0,0,0
	c0.1-0.1,0.1-0.2,0.2-0.3c0.1-0.1,0.1-0.2,0.1-0.3c0,0,0,0,0,0c0-0.1,0.1-0.2,0.1-0.3c0-0.2,0-0.3,0-0.5
	C167,118.3,165.7,117,164.1,117z"/>
</svg>
