<?xml version="1.0" encoding="utf-8"?>
<!-- Generator: Adobe Illustrator 21.0.0, SVG Export Plug-In . SVG Version: 6.00 Build 0)  -->
<svg version="1.1" id="Layer" xmlns="http://www.w3.org/2000/svg" xmlns:xlink="http://www.w3.org/1999/xlink" x="0px" y="0px"
	 viewBox="0 0 1000 1000" style="enable-background:new 0 0 1000 1000;" xml:space="preserve">
<style type="text/css">
	.st0{fill:#FFFFFF;}
</style>
<path class="st0" d="M500,67C260.9,67,67,260.9,67,500s193.9,433,433,433s433-193.9,433-433S739.1,67,500,67z M571,765.5
	c0,15.7-12.8,28.5-28.5,28.5h-85c-15.7,0-28.5-12.8-28.5-28.5v-85c0-15.7,12.8-28.5,28.5-28.5h85c15.7,0,28.5,12.8,28.5,28.5V765.5z
	 M571.5,584.2c-0.3,8.2-7.1,14.8-15.3,14.8H443.8c-8.2,0-15.1-6.6-15.4-14.8l-13.1-343.3c-0.3-8.2,7.3-14.8,17-14.8h132.8
	c9.7,0,17.3,6.6,17.1,14.8L571.5,584.2z"/>
</svg>
