<?xml version="1.0" encoding="utf-8"?>
<!-- Generator: Adobe Illustrator 21.0.0, SVG Export Plug-In . SVG Version: 6.00 Build 0)  -->
<svg version="1.1" id="Layer_2" xmlns="http://www.w3.org/2000/svg" xmlns:xlink="http://www.w3.org/1999/xlink" x="0px" y="0px"
	 viewBox="0 0 512 512" style="enable-background:new 0 0 512 512;" xml:space="preserve">
<style type="text/css">
	.st0{fill:#FFFFFF;}
</style>
<path class="st0" d="M493.3,197h-21c-10.3,0-18.8,8.4-18.8,18.8V256h-21v-98.8c0-10.3-8.4-18.8-18.8-18.8H196.3
	c-5.4,0-10.3,2.3-13.7,6l-0.1,0.1L130,197H98.3c-10.3,0-18.8,8.4-18.8,18.8V256h-21v-40.3c0-10.3-8.4-18.8-18.8-18.8h-21
	C8.4,197,0,205.4,0,215.8v139.5C0,365.6,8.4,374,18.8,374h21c10.3,0,18.8-8.4,18.8-18.8v-40.8h21v40.8c0,10.3,8.4,18.8,18.8,18.8
	H130l52.8,52.8l0.5,0.5c3.4,3.2,7.9,5.2,12.9,5.2h139.5c4.5,0,8.6-1.6,11.8-4.2l80.7-80.7l0,0c2.6-3.2,4.2-7.3,4.2-11.8v-21.3h21
	v40.8c0,10.3,8.4,18.8,18.8,18.8h21c10.3,0,18.8-8.4,18.8-18.8V215.8C512,205.4,503.6,197,493.3,197z M227,389.8l12.5-35.3
	l20.5-58.2h-42l40.6-79.8l10.8-21.2H321l-12.9,21.2l-36,59.2h45.2L255,354.5L227,389.8z"/>
<path class="st0" d="M373.5,57.8v21.5c0,10.3-8.4,18.8-18.8,18.8h-40v20.5h-58.5V98h-40c-10.3,0-18.8-8.4-18.8-18.8V57.8
	c0-10.3,8.4-18.8,18.8-18.8h138.5C365.1,39,373.5,47.4,373.5,57.8z"/>
</svg>
