<?xml version="1.0" encoding="utf-8"?>
<!-- Generator: Adobe Illustrator 21.0.0, SVG Export Plug-In . SVG Version: 6.00 Build 0)  -->
<svg version="1.1" id="Layer_2" xmlns="http://www.w3.org/2000/svg" xmlns:xlink="http://www.w3.org/1999/xlink" x="0px" y="0px"
	 viewBox="0 0 463 315" style="enable-background:new 0 0 463 315;" xml:space="preserve">
<style type="text/css">
	.st0{fill:#FFFFFF;}
</style>
<path class="st0" d="M419,144.5v36h34c4,0,7.3,3.3,7.3,7.3v0.8c0,4-3.3,7.3-7.3,7.3h-34v16.6c0,4.3-3.5,7.9-7.9,7.9h0
	c-4.3,0-7.9-3.5-7.9-7.9V210H385c-21.8,0-40.2-15.2-45.2-35.5h-26.5l-65,119.5H133.7L212,150h128.6c2.3-7.4,6.3-14,11.6-19.3
	c8.4-8.4,20.1-13.7,32.8-13.7h18.3v-1.9c0-4.3,3.5-7.9,7.9-7.9h0c4.3,0,7.9,3.5,7.9,7.9v14.1h34c4,0,7.3,3.3,7.3,7.3v0.8
	c0,4-3.3,7.3-7.3,7.3H419z"/>
<polygon class="st0" points="270.3,7.8 209.3,120 94.6,120 155.6,7.8 "/>
<polygon class="st0" points="404,7.8 343,120 228.3,120 289.3,7.8 "/>
<polygon class="st0" points="193,150 114.7,294 0,294 78.3,150 "/>
</svg>
