<svg height="511pt" viewBox="-1 0 511 511.81114" width="511pt" xmlns="http://www.w3.org/2000/svg"><path d="m139.777344.765625c-17.210938-3.816406-34.269532 6.992187-38.164063 24.183594l-100.4375 447.925781c-2.117187 9.464844.179688 19.378906 6.238281 26.949219 6.0625 7.574219 15.234376 11.984375 24.9375 11.988281 14.945313-.023438 27.886719-10.382812 31.179688-24.960938l45.875-204.585937c12.804688 12.210937 28.296875 21.25 45.226562 26.390625h.152344c19.773438 5.480469 40.421875 7.046875 60.792969 4.617188h.058594c21.621093-2.496094 43.078125-6.265626 64.257812-11.289063 57.929688-12.59375 112.640625-24.488281 155.398438 15.589844 3.074219 2.910156 7.144531 4.535156 11.375 4.53125 8.039062.015625 15.011719-5.546875 16.785156-13.386719l46.78125-208.632812c1.21875-5.398438-.253906-11.054688-3.953125-15.171876-33.636719-37.402343-73.949219-43.425781-115.832031-39.253906-.066407 0-.144531 0-.210938 0-21.105469 2.535156-42.050781 6.253906-62.738281 11.144532-61.183594 13.3125-119.03125 25.78125-162.867188-23.457032.691407-15.445312-9.777343-29.167968-24.855468-32.582031zm178.34375 75.546875-8.703125 38.792969c-15.070313 3.257812-29.917969 6.332031-44.371094 8.363281l8.789063-39.375c14.660156-1.765625 29.480468-4.648438 44.261718-7.78125zm62.722656-12.320312-8.832031 39.398437c-14.660157 1.757813-29.476563 4.613281-44.253907 7.753906l8.710938-38.800781c15.078125-3.25 29.917969-6.324219 44.375-8.351562zm-91.503906 218.527343 8.730468-38.78125c15.078126-3.269531 29.917969-6.34375 44.371094-8.371093l-8.839844 39.414062c-14.683593 1.757812-29.5 4.609375-44.261718 7.738281zm-62.761719 12.324219 8.832031-39.398438c14.660156-1.765624 29.472656-4.617187 44.253906-7.757812l-8.707031 38.792969c-15.066406 3.257812-29.917969 6.324219-44.378906 8.363281zm-91.554687-126.832031c10.75 10.21875 23.390624 18.25 37.214843 23.636719l-8.996093 40.097656c-14.023438-5.984375-26.519532-15.042969-36.566407-26.511719zm53.570312 28.65625c13.730469 2.941406 27.796875 4.011719 41.816406 3.171875l-8.9375 39.835937c-14.023437 1.203125-28.152344.324219-41.921875-2.605469zm59.625 1.652343c14.660156-1.765624 29.480469-4.625 44.253906-7.753906l-8.695312 38.792969c-15.078125 3.257813-29.929688 6.332031-44.375 8.359375zm53.929688 27.078126 8.722656-38.792969c15.078125-3.257813 29.914062-6.332031 44.371094-8.363281l-8.839844 39.398437c-14.660156 1.765625-29.484375 4.617187-44.253906 7.757813zm71.015624-49.117188c14.023438-1.21875 28.152344-.355469 41.921876 2.558594l-9.0625 40.414062c-13.730469-2.945312-27.796876-4.015625-41.8125-3.175781zm58.214844 7.925781c14.074219 6 26.617188 15.097657 36.691406 26.617188l-8.3125 37.238281c-10.777343-10.273438-23.457031-18.34375-37.332031-23.746094zm41.113282 6.691407c-10.773438-10.253907-23.4375-18.308594-37.292969-23.714844l8.984375-40.105469c14.046875 5.996094 26.5625 15.078125 36.617187 26.570313zm-53.660157-28.730469c-13.730469-2.945313-27.796875-4.011719-41.8125-3.175781l8.941407-39.84375c14.027343-1.21875 28.152343-.355469 41.925781 2.5625zm-59.621093-1.65625c-14.660157 1.765625-29.484376 4.617187-44.253907 7.757812l8.710938-38.75c15.070312-3.261719 29.867187-6.324219 44.375-8.363281zm-53.929688-27.078125-8.695312 38.75c-15.078126 3.261718-29.917969 6.332031-44.375 8.371094l8.832031-39.40625c14.644531-1.722657 29.464843-4.574219 44.238281-7.714844zm-71.015625 49.128906c-14.027344 1.203125-28.15625.324219-41.925781-2.613281l9.0625-40.414063c13.730468 2.949219 27.796875 4.015625 41.816406 3.175782zm-58.214844-7.9375c-14.023437-5.984375-26.519531-15.046875-36.566406-26.511719l8.347656-37.230469c10.75 10.222657 23.390625 18.25 37.214844 23.636719zm-129.175781 308.488281c-2.09375 7.675781-9.851562 12.34375-17.613281 10.605469s-12.785157-9.273438-11.402344-17.109375l100.402344-447.921875c1.53125-6.785156 7.550781-11.613281 14.507812-11.628906 1.097657 0 2.191407.121094 3.261719.355468 8.015625 1.808594 13.054688 9.765626 11.261719 17.785157zm66.960938-220.585937 8.386718-37.394532c10.746094 10.226563 23.382813 18.253907 37.207032 23.636719l-8.988282 40.167969c-14.03125-5.945312-26.542968-14.96875-36.605468-26.410156zm52.90625 31.625 9.054687-40.363282c13.726563 2.941407 27.792969 4.011719 41.8125 3.175782l-8.960937 39.804687c-14.023438 1.199219-28.148438.316407-41.914063-2.617187zm193.9375-21.164063c-3.074219 0-6.152344.101563-9.25.246094l8.933593-39.832031c14.027344-1.199219 28.152344-.320313 41.921875 2.613281l-9.070312 40.4375c-10.683594-2.367187-21.601563-3.527344-32.546875-3.464844zm86.3125 32.171875c-10.8125-10.246094-23.523438-18.28125-37.417969-23.65625l8.996093-40.199218c14.082032 6.011718 26.625 15.128906 36.691407 26.667968zm46.601562-208.792968-8.335938 37.359374c-10.757812-10.238281-23.40625-18.28125-37.242187-23.671874l9.003906-40.109376c14.019531 5.945313 26.519531 14.976563 36.566407 26.421876zm-52.898438-31.703126-9.054687 40.355469c-13.730469-2.945312-27.796875-4.011719-41.8125-3.175781l8.933594-39.808594c14.03125-1.195312 28.164062-.308594 41.933593 2.628906zm-184.6875 20.90625-8.933593 39.84375c-14.023438 1.222657-28.152344.359376-41.925781-2.5625l9.074218-40.445312c13.71875 2.941406 27.777344 4.015625 41.785156 3.183594zm-58.171874-8.105468-8.976563 40.105468c-14.023437-5.988281-26.519531-15.050781-36.566406-26.519531l8.328125-37.121093c10.757812 10.191406 23.398437 18.183593 37.214844 23.535156zm0 0"/></svg>