<?xml version="1.0" encoding="utf-8"?>
<!-- Generator: Adobe Illustrator 21.0.0, SVG Export Plug-In . SVG Version: 6.00 Build 0)  -->
<svg version="1.1" id="Layer_2" xmlns="http://www.w3.org/2000/svg" xmlns:xlink="http://www.w3.org/1999/xlink" x="0px" y="0px"
	 viewBox="0 0 512 512" style="enable-background:new 0 0 512 512;" xml:space="preserve">
<style type="text/css">
	.st0{fill:#FFFFFF;}
</style>
<path class="st0" d="M256,0C114.6,0,0,114.6,0,256c0,2.4,0,4.7,0.1,7.1c3.3,121.7,91.5,222.2,207.6,244.3c15.7,3,31.8,4.6,48.3,4.6
	s32.7-1.6,48.3-4.6c116-22.2,204.3-122.7,207.6-244.3c0.1-2.4,0.1-4.7,0.1-7.1C512,114.6,397.4,0,256,0z M256,64.5
	c83.4,0,154.4,53.4,180.7,127.8H75.3C101.6,117.9,172.6,64.5,256,64.5z M256,287c-17.1,0-31-13.9-31-31s13.9-31,31-31s31,13.9,31,31
	S273.1,287,256,287z M64.5,256.6c89.9,7.5,160.5,82.9,160.5,174.7c0,4.6-0.2,9.1-0.5,13.6C133.9,429.9,64.8,351.4,64.5,256.6z
	 M287.5,444.9c-0.3-4.5-0.5-9-0.5-13.6c0-91.8,70.6-167.2,160.5-174.7C447.2,351.4,378.1,429.9,287.5,444.9z"/>
</svg>
